<?xml version="1.0" encoding="UTF-8" standalone="no"?>
<!-- Created with Inkscape (http://www.inkscape.org/) -->

<svg
   xmlns:dc="http://purl.org/dc/elements/1.1/"
   xmlns:cc="http://creativecommons.org/ns#"
   xmlns:rdf="http://www.w3.org/1999/02/22-rdf-syntax-ns#"
   xmlns:svg="http://www.w3.org/2000/svg"
   xmlns="http://www.w3.org/2000/svg"
   xmlns:sodipodi="http://sodipodi.sourceforge.net/DTD/sodipodi-0.dtd"
   xmlns:inkscape="http://www.inkscape.org/namespaces/inkscape"
   width="100%"
   height="100%"
   viewBox="0 0 355.6 215.9"
   version="1.1"
   id="svg8"
   sodipodi:docname="dibujo.svg"
   inkscape:version="0.92.3 (2405546, 2018-03-11)">
  <defs
     id="defs2" />
  <sodipodi:namedview
     id="base"
     pagecolor="#ffffff"
     bordercolor="#666666"
     borderopacity="1.0"
     inkscape:pageopacity="0.0"
     inkscape:pageshadow="2"
     inkscape:zoom="0.34424441"
     inkscape:cx="460.13273"
     inkscape:cy="565.55832"
     inkscape:document-units="mm"
     inkscape:current-layer="layer1"
     showgrid="false"
     inkscape:window-width="1225"
     inkscape:window-height="717"
     inkscape:window-x="141"
     inkscape:window-y="27"
     inkscape:window-maximized="0"
     inkscape:object-paths="true"
     units="in" />
  <metadata
     id="metadata5">
    <rdf:RDF>
      <cc:Work
         rdf:about="">
        <dc:format>image/svg+xml</dc:format>
        <dc:type
           rdf:resource="http://purl.org/dc/dcmitype/StillImage" />
        <dc:title></dc:title>
      </cc:Work>
    </rdf:RDF>
  </metadata>
  <g
     inkscape:label="Capa 1"
     inkscape:groupmode="layer"
     id="layer1"
     transform="translate(0,-81.1)">
    <rect
       style="fill:#00ffff;fill-opacity:0;stroke:#00ff8d;stroke-width:7.48770809;stroke-miterlimit:4;stroke-dasharray:none;stroke-opacity:0"
       id="rect6568"
       width="182.60802"
       height="108.15178"
       x="9.7825727"
       y="20.914049"
       ry="0" />
    <path
       id="rect6610"
       style="fill:#000000;fill-opacity:0;stroke:#00ff8d;stroke-width:0.58838063;stroke-miterlimit:4;stroke-dasharray:none;stroke-opacity:0.99613899"
       d="M 2.2036345,83.710864 V 294.2532 H 348.26461 c -0.0229,-0.005 -0.0412,-0.0113 -0.0468,-0.0195 -0.0695,-0.10015 -0.1302,-0.23356 0.0301,-0.31299 0.0991,-0.0491 0.2658,-0.0472 0.43402,-0.0426 -0.0306,-0.18848 0.13982,-0.23669 0.47558,-0.21999 0.0898,-0.081 0.18377,-0.16414 0.28198,-0.22298 0.0647,-0.0387 0.15853,-0.0672 0.23778,-0.10077 0.47336,-0.14549 0.15844,-0.0399 0.80529,-0.3115 0.29995,-0.12588 0.60655,-0.24892 0.90252,-0.37648 0.40188,-0.17323 0.81455,-0.34261 1.19069,-0.52588 0.41242,-0.20096 0.73003,-0.37655 1.03511,-0.55463 V 83.710864 Z M 348.53334,293.92191 c -0.0347,0.002 -0.0634,0.004 -0.0425,0.004 0.0362,-0.002 0.0725,-1.4e-4 0.10873,0 -0.0166,-0.003 -0.041,-0.004 -0.0663,-0.004 z"
       inkscape:connector-curvature="0" />
  </g>
</svg>
